<?xml version="1.0" encoding="UTF-8"?>
<svg id="Layer_1" data-name="Layer 1" xmlns="http://www.w3.org/2000/svg" viewBox="0 0 32 32">
  <defs>
    <style>
      .cls-1 {
        fill: #ff3;
      }

      .cls-1, .cls-2, .cls-3, .cls-4, .cls-5 {
        stroke: #000;
        stroke-miterlimit: 10;
        stroke-width: 2px;
      }

      .cls-2 {
        fill: aqua;
      }

      .cls-3 {
        fill: #f0f;
      }

      .cls-4 {
        fill: #ff0;
      }

      .cls-5 {
        fill: #93f;
      }
    </style>
  </defs>
  <rect class="cls-2" x="21" y="11" width="10" height="10"/>
  <rect class="cls-5" x="1" y="11" width="10" height="10"/>
  <rect class="cls-3" x="11" y="11" width="10" height="10"/>
  <path class="cls-1" d="M21,21h10v5c0,2.76-2.24,5-5,5h-5v-10h0Z"/>
  <path class="cls-5" d="M1,21h10v10h-5c-2.76,0-5-2.24-5-5v-5h0Z"/>
  <rect class="cls-3" x="11" y="21" width="10" height="10"/>
  <path class="cls-2" d="M21,1h5c2.76,0,5,2.24,5,5v5h-10V1h0Z"/>
  <path class="cls-2" d="M6,1h5v10H1v-5C1,3.24,3.24,1,6,1Z"/>
  <rect class="cls-4" x="11" y="1" width="10" height="10"/>
</svg>